<?xml version="1.0" encoding="utf-8"?>
<!-- Generator: Adobe Illustrator 27.1.1, SVG Export Plug-In . SVG Version: 6.00 Build 0)  -->
<svg version="1.1" id="Calque_1" xmlns="http://www.w3.org/2000/svg" xmlns:xlink="http://www.w3.org/1999/xlink" x="0px" y="0px"
	 viewBox="0 0 500 500" style="enable-background:new 0 0 500 500;" xml:space="preserve">
<style type="text/css">
	.st0{opacity:0.75;fill:url(#SVGID_1_);}
	.st1{opacity:0.75;fill:url(#SVGID_00000107573849495861118990000007717965261350053562_);}
	.st2{opacity:0.75;fill:url(#SVGID_00000060720294377245364760000001151238592248750225_);}
	.st3{opacity:0.75;}
	.st4{fill:url(#SVGID_00000065041642529731182220000012318353112598587520_);}
	.st5{fill:url(#SVGID_00000091727393026106675370000016607636883345552571_);}
	.st6{fill:url(#SVGID_00000107548556269183790730000017500365687513756575_);}
	.st7{opacity:0.75;fill:url(#SVGID_00000142855421304279229650000015426651542945523362_);}
	.st8{fill:#F2F2F2;stroke:#F2F2F2;stroke-width:10.8984;stroke-miterlimit:10;}
	.st9{fill:#CC3A8A;}
	.st10{fill:#6453D1;}
	.st11{opacity:0.2;}
	.st12{fill:#FFFFFF;}
</style>
<linearGradient id="SVGID_1_" gradientUnits="userSpaceOnUse" x1="377.866" y1="405.6122" x2="377.866" y2="38.282">
	<stop  offset="0" style="stop-color:#FFFFFF"/>
	<stop  offset="1" style="stop-color:#EEC97E"/>
</linearGradient>
<path class="st0" d="M337.01,230.56c-16.58-16.11-39.77-44.01-40.25-59.85c-3.48-18.03-9.03-24.89-7.65-32.34
	c-0.14-9.66-2.73-17.3-5.25-20.73c-0.83-5.68,2.27-14.65,13.34-2.17c4.27,4.15,9.65,16.21,9.97,21.65c1.33-1.05,1.23-0.15,1.58-1.92
	c2-10.04-0.24-24.11-0.73-28.56c-0.57-5.19-3.43-27.93-3-32.4c-1.09-6.67-1.32-23.02,6.32-25.36c11.36-2.72,11.03,29.41,13.3,41.27
	c1.79,11.25,4.51,23.89,4.35,24.79c0.7,0.76,1.65,1.95,2.62-0.21c-1.61-8.4-3.76-20.5-3.58-24.96c-2.65-11.85-3.31-23.48-3.34-25.71
	c-1.87-9.39-2.8-22.25,1.38-24.79c4.17-2.54,8.42,0.13,10.72,5.05c2.3,4.92,3.2,15.81,3,18.78c3.35,9.12,4.98,19.25,5.32,25.68
	c2.1,7.9,3.95,16.04,3.81,23.48c0.05,3.47,3.28,4.41,2.72-0.04c-1.86-8.64-2.98-17.54-2.76-19.78c-0.85-7.67-2.2-15.08-2.27-20.03
	c-1.86-8.89-6.02-22.45,0.14-24.28c6.17-1.82,11.16,1.57,15.02,19.85c2.43,4.92,6.15,22.2,6.7,25.91
	c0.55,3.71,1.79,20.78,1.61,25.74c1.27,2.21,2.76,2.68,1.98-0.28c0.89-7.2,1.57-11.42,1.78-14.14c-0.85-7.42-0.42-12.13-0.21-14.86
	c-1.11-7.91-2.72-16.8,3.93-19.38c2.71-1.03,6.98,2.87,9.44,19.18c1.8,4.68,2.2,15.32,1.76,19.05c2.73,9.96,1.84,11.54,2.2,15.08
	c6.13,13.04,11.99,58.28,5.89,81.65c-0.42,5.46-1.63,6.96,26.76,69.21c28.39,62.26,47.93,114.75,48.4,124.61l-78.76,5.87
	c0,0-14.35-65.12-22.2-101.81S346.12,244.3,337.01,230.56z"/>
<linearGradient id="SVGID_00000090283190142945139310000012468399207520344964_" gradientUnits="userSpaceOnUse" x1="260.0532" y1="405.1782" x2="260.0532" y2="43.4427">
	<stop  offset="0" style="stop-color:#FFFFFF"/>
	<stop  offset="1" style="stop-color:#74BCFC"/>
</linearGradient>
<path style="opacity:0.75;fill:url(#SVGID_00000090283190142945139310000012468399207520344964_);" d="M215.51,405.18
	c-0.22-18.44-2.82-52.87-5.67-86.03c-3.7-43.13-7.83-84.13-7.68-85.1c-5.78-13.21-13.19-43.3-11.19-79.04
	c-1.43-7.12-3.71-22.94-3.24-26.8c-2.19-6.43-4.85-18.34-5.04-25.12c-0.19-6.78,1.81-15.07,6.66-14.6
	c4.85,0.47,7.61,11.33,7.42,14.25c1.14,3.97,1.62,7.13,1.71,8.41c1.14,2.22,6.52,22.65,7.21,27.21c1.04-1.41,1.72-0.3,2.29-1.12
	c-1.14-13.78,1.24-57.52,4.95-70.37c3.71-12.85,9.8-10.05,12.84-8.06c3.04,1.99,1.24,10.51,0.67,12.15
	c-0.1,4.79-1.33,10.98-1.52,12.27c0.67,5.14,0.19,15.89-0.19,18.92c1.05,4.09,1.43,17.69,1.14,24c0.95-1.17,2.83-1.17,3.4-1.17
	c-0.1-3.15,0.83-27.74,1.78-31.36c-0.67-7.83,1.14-20.56,1.81-23.95c-0.1-8.06,0.67-15.42,0.67-18.69c0-3.27,3.52-9.35,9.51-7.01
	c5.99,2.34,7.04,10.51,6.66,16.12c-0.38,5.61-0.57,7.94-0.86,10.05c0.48,4.56,0,22.08-0.19,23.83c0.1,3.97,0.67,25.05-0.1,30.89
	c2.95,0,3.71,1.52,5.04-3.62c1.33-5.14,10.18-40.12,10.94-42.45c0.76-4.56,5.61-27.1,12.84-24.3c7.23,2.8,9.23,10.75,4.38,28.62
	c-0.95,8.18-3.14,20.33-4,22.9c-0.48,6.07-3.23,24.46-4.47,27.73c0.19,3.27,0,11.68-0.38,13.32c0.86,3.27,7.33,20.83,9.61,23.05
	c2.28,2.22,7.71,0.93,9.7-1.17c2-2.1,9.04-7.13,11.89-8.18c7.9-7.13,23.31-18.19,32.06-6.04c1.24,2.69,3.42,4.44-4.57,9.35
	c-3.52,1.99-11.32,15.42-14.84,16.59c-3.71,3.04-15.79,12.97-19.69,19.16c-2.4,3.82-10.67,13.81-18.48,22.71
	c-4.86,5.54-18.41,18.16-21.41,21.12c-2.85,3.62,5.21,46.73,9.27,78.12c5.26,40.72,17.04,83.42,17.04,83.42H215.51z"/>
<linearGradient id="SVGID_00000023257128061131410270000014338308149100977540_" gradientUnits="userSpaceOnUse" x1="211.7015" y1="438.8469" x2="211.7015" y2="182.0527" gradientTransform="matrix(0.9969 -0.0787 0.0787 0.9969 -21.2344 16.8608)">
	<stop  offset="0" style="stop-color:#FFFFFF"/>
	<stop  offset="1" style="stop-color:#6453D1"/>
</linearGradient>
<path style="opacity:0.75;fill:url(#SVGID_00000023257128061131410270000014338308149100977540_);" d="M216.49,438.31
	c1.42-4.77,8.46-79.26,11.88-88.22c11.37-10.78,34.37-47.21,32.98-63.08c7.48-22.52,27.43-42.74,19.9-61.91
	c-5.86-5.68-11.8,3.56-12.88,6.96c-2.52,6.39-23.47,52.29-22.84,26.85c6.11-14.22,8-24.26,11.47-37.27
	c1.07-2.42,10.18-21.66,0.43-26.55c-14.14-2.59-13.73,20.18-17.87,28.12c-1.53,3.44-8.99,24.2-9.72,29.82
	c-5-19.44,9.04-46.65,12.63-63.68c-6.57-30.99-27.04,17.93-27.19,26.52c-1.66-1.48-5.69,38.49-8.17,31.26
	c-0.27-2.32-0.9-13.68-1.22-15.41c0.93-11.61,6.13-32.13,7.31-39.76c-5.63-24.22-22.75,6.26-22.14,15.1
	c-10.83,23.76-1.47,50.07-16.21,70.88c-3.77-8.96-11.48-23.37-26.52-30.08c-8.88-4.08-13.56,6.33-9.69,8.56
	c18.57,16.26,13.86,40.51,26.24,60.81c2.39,6.24,6.14,25.16,15.74,31.62c-3.87,10.35-21.34,84.18-30.6,94.7L216.49,438.31z"/>
<g class="st3">
	
		<linearGradient id="SVGID_00000090252351720708730510000011828444416936003772_" gradientUnits="userSpaceOnUse" x1="143.0314" y1="406.4741" x2="143.0314" y2="92.3545">
		<stop  offset="0" style="stop-color:#FFFFFF"/>
		<stop  offset="1" style="stop-color:#B35042"/>
	</linearGradient>
	<path style="fill:url(#SVGID_00000090252351720708730510000011828444416936003772_);" d="M180.33,186.56
		c0.39-1.47,0.7-3.28,0.69-3.97s0.34-2.43,0.75-3.86c0.4-1.43,0.75-3.18,0.74-3.81c-0.01-0.68,0.76-2.97,1.73-5.09
		c1.85-4.03,4.45-22.62,5.79-24.17l13.43-23.41c0,0,5.43-16.78,2.47-18.64c-2.96-1.86-12.34,10.59-12.34,10.59l-16.68,22.14
		c-1.45,1.56-5.34,8.88-7.07,13.18c-0.17,0.42-0.53,1.16-0.77,1.6c-0.42,0.74-0.92,1.86-2.1,4.78c-0.3,0.74-0.88,1.91-1.29,2.66
		l-0.77,1.33l-0.02-1.53c-0.01-0.84,0.2-2.27,0.49-3.17c0.98-3.07,3.58-11.72,4.11-13.57c0.94-3.24,1.69-4.72,9.72-21.23
		c1.91-3.93,3.86-8.49,4.36-10.09c0.51-1.59,1.22-3.77,1.58-4.82c0.97-2.86,1.4-10.63,0.64-11.99l0,0l0,0l0,0l0,0l0,0l0,0
		c-0.81-1.47-2.87-1.49-4.85,0.01c-1.36,1.02-7.23,8.54-7.23,9.33c0,0.16-0.58,1.05-1.24,1.97c-0.69,0.95-2.9,4.52-4.92,7.98
		c-5.53,9.47-12.4,18.43-13.51,17.75c-0.75-0.46,0.06-3.43,2.32-8.74c2.76-6.48,3.71-9.87,3.68-14.09c-0.02-3.7-1.07-5-3.91-4.97
		c-1.85,0.02-2.43,0.29-3.88,2c-0.95,1.11-3.02,4.78-4.6,8.13c-5.62,11.94-7.8,16.08-11.96,23.11c-0.34,0.57-1.55,3.08-2.73,5.52
		c-2.27,4.67-2.51,5.94-3.48,17.68c-0.55,6.71-0.57,6.74-1.52,5.56c-1.1-1.38-2.13-4.46-3.51-10.67
		c-2.81-12.68-5.51-20.07-7.86-21.28c-3.12-1.61-4.99,0.64-4.58,5.5c0.7,8.23,1.75,21.46,2.31,29.48c0.34,4.85,0.89,9.85,1.19,11.07
		c0.31,1.26,0.9,4.58,1.41,7.48c0.85,4.74,0.86,5.64,0.13,10.82c-1.27,9.04-0.68,31.51-1.24,33.84c-0.19,0.81-0.68,2.79-1.34,5.42
		c-7.73-1.28-14.14-0.51-17.19,3.56c-0.26,0.34-0.49,0.71-0.69,1.08l0,0c-0.2,0.38-0.37,0.78-0.51,1.18
		c-1.92,5.66,2.54,12.55,9.81,19.13c-6.68,11.92-14.82,26.81-20.37,38.18C74.58,321.9,28,393.73,28,393.73
		c16.75,7.64,61.41,12.75,61.41,12.75s25.76-70.26,35.45-91.5c4-8.78,11.91-21.49,18.76-31.93c12.7,4.42,24.69,5.7,29.24-0.36l0,0
		c0.26-0.34,0.49-0.71,0.69-1.08c0.2-0.38,0.37-0.78,0.51-1.18l0,0c1.43-4.2-0.67-9.08-4.81-14c7.53-4.41,14.66-10.33,24.12-19.93
		c4.46-4.52,9.49-9.32,11.22-10.69c1.77-1.41,3.66-2.95,4.23-3.48c1.51-1.4,18.84-13.27,19.42-13.28
		c1.21-0.02,14.21-9.81,18.62-14.06c0.75-0.73,2.53-1.89,3.93-2.58c7.26-3.59,9.09-7.5,5.45-11.74c-2.47-2.87-4.05-3.35-11.02-3.24
		c-7.07,0.11-8.96,0.66-16.57,4.37c-4.82,2.35-12.73,7.61-15.76,10.43c-2.71,2.52-5.91,4.47-10.69,6.52c-2.3,0.99-4.63,2-5.15,2.28
		c-0.48,0.26-1.94,0.65-3.16,0.83c-3.63,0.56-7.26-1.38-13.28-6.97c-2.52-2.34-2.51-2.4-2.55-5.78
		C178.01,195.93,178.55,193.19,180.33,186.56z M103.86,244.84c0.66-0.86,3.69-1.24,8.58-0.5c-0.82,3.13-1.71,6.42-2.58,9.46
		C105.34,249.39,103.47,246.02,103.86,244.84z M166.29,277.76c-0.94,1.22-6.59,1.48-15.57-1.06c0.37-0.23,0.77-0.51,1.08-0.79
		c0.93-0.83,2.93-1.96,9.99-5.57C165.22,273.99,166.63,276.72,166.29,277.76z"/>
	
		<linearGradient id="SVGID_00000090280013610591859630000003135674047220664208_" gradientUnits="userSpaceOnUse" x1="97.2883" y1="239.9246" x2="97.2883" y2="239.9246">
		<stop  offset="0" style="stop-color:#FFFFFF"/>
		<stop  offset="1" style="stop-color:#B35042"/>
	</linearGradient>
	<path style="fill:url(#SVGID_00000090280013610591859630000003135674047220664208_);" d="M97.29,239.92L97.29,239.92L97.29,239.92z
		"/>
	
		<linearGradient id="SVGID_00000084509876906738886230000016114092757020593822_" gradientUnits="userSpaceOnUse" x1="96.0915" y1="242.1908" x2="96.0915" y2="242.1908">
		<stop  offset="0" style="stop-color:#FFFFFF"/>
		<stop  offset="1" style="stop-color:#B35042"/>
	</linearGradient>
	<path style="fill:url(#SVGID_00000084509876906738886230000016114092757020593822_);" d="M96.09,242.19L96.09,242.19L96.09,242.19z
		"/>
</g>
<linearGradient id="SVGID_00000046317671050456900190000017086129938222959271_" gradientUnits="userSpaceOnUse" x1="319.6491" y1="479.092" x2="319.6491" y2="145.7269">
	<stop  offset="0" style="stop-color:#FFFFFF"/>
	<stop  offset="1" style="stop-color:#CC3A8A"/>
</linearGradient>
<path style="opacity:0.75;fill:url(#SVGID_00000046317671050456900190000017086129938222959271_);" d="M307.95,479.09
	c0,0,0.06-39.28-3.65-69.17c-4.29-34.53-10.97-70.22-16.76-79.56c-8.77-8.13-24.27-32.19-33.77-39.65
	c-4.07-20.12-13.45-43.01-30.64-50.84c9.04-24.53,45.01,10.31,48.64,26.61c37.96-8.52-4.96-77.44,16.17-106.95
	c22.85-18.55,10.66,66.97,28.01,67.24c-7.98-15.34,3.33-116.95,22.17-67.68c-1.58,19.74-5.27,57.56,2.91,67.47
	c5.99-12.58,3.88-88.98,24.79-58.01c6.6,23.31-14.89,60.38,1.07,75c15.82-9.65,29.37-45,46.29-43.28
	c15.55,12.1-34.68,56.18-33.34,62.6c0.35,5.01-10.29,53.53-15.12,62.73c-12.83,48.01,15.79,153.42,15.79,153.42L307.95,479.09z"/>
<g>
	<g>
		<g>
			<g>
				<path class="st8" d="M139.53,391.57c-5.08,0-9.63-0.99-13.64-2.97c-4.02-1.98-7.19-4.7-9.53-8.15
					c-2.34-3.45-3.51-7.31-3.51-11.58c0-5.49,1.4-9.8,4.19-12.95c2.79-3.15,7.42-5.38,13.87-6.71c6.45-1.32,15.26-1.98,26.44-1.98
					h6.86v8.08h-6.71c-8.23,0-14.71,0.38-19.43,1.14c-4.72,0.76-8.03,2.06-9.91,3.89c-1.88,1.83-2.82,4.42-2.82,7.77
					c0,4.17,1.45,7.57,4.34,10.21c2.9,2.64,6.83,3.96,11.81,3.96c4.06,0,7.64-0.96,10.74-2.9c3.1-1.93,5.54-4.57,7.31-7.92
					c1.78-3.35,2.67-7.21,2.67-11.58V342.5c0-6.3-1.27-10.84-3.81-13.64c-2.54-2.79-6.71-4.19-12.5-4.19
					c-3.56,0-7.11,0.46-10.67,1.37c-3.56,0.92-7.31,2.39-11.28,4.42c-1.42,0.71-2.64,0.94-3.66,0.69c-1.02-0.25-1.83-0.79-2.44-1.6
					c-0.61-0.81-0.97-1.75-1.07-2.82c-0.1-1.07,0.13-2.11,0.69-3.12c0.56-1.01,1.45-1.83,2.67-2.44c4.47-2.23,8.89-3.86,13.26-4.88
					c4.37-1.01,8.54-1.52,12.5-1.52c6.4,0,11.68,1.04,15.85,3.12c4.17,2.08,7.26,5.23,9.3,9.45c2.03,4.22,3.05,9.63,3.05,16.23v41.3
					c0,2.03-0.48,3.61-1.45,4.72c-0.97,1.12-2.36,1.68-4.19,1.68c-1.93,0-3.41-0.56-4.42-1.68c-1.02-1.12-1.53-2.69-1.53-4.72
					v-11.89h1.37c-0.81,3.86-2.36,7.16-4.65,9.91c-2.29,2.74-5.11,4.88-8.46,6.4C147.45,390.81,143.69,391.57,139.53,391.57z"/>
				<path class="st8" d="M211.92,391.57c-7.32,0-12.9-2.23-16.77-6.71c-3.86-4.47-5.79-10.87-5.79-19.2v-77.72
					c0-2.03,0.51-3.58,1.53-4.65c1.01-1.07,2.54-1.6,4.57-1.6c1.93,0,3.45,0.53,4.57,1.6c1.12,1.07,1.68,2.62,1.68,4.65v76.81
					c0,5.49,1.09,9.58,3.28,12.27c2.18,2.69,5.41,4.04,9.68,4.04c0.91,0,1.73-0.05,2.44-0.15c0.71-0.1,1.42-0.15,2.13-0.15
					c1.12-0.1,1.9,0.15,2.36,0.76s0.69,1.83,0.69,3.66s-0.41,3.2-1.22,4.12c-0.81,0.91-2.13,1.52-3.96,1.83
					c-0.81,0.1-1.68,0.2-2.59,0.3C213.59,391.52,212.73,391.57,211.92,391.57z"/>
				<path class="st8" d="M249.41,391.57c-7.32,0-12.9-2.23-16.77-6.71c-3.86-4.47-5.79-10.87-5.79-19.2v-77.72
					c0-2.03,0.51-3.58,1.53-4.65c1.01-1.07,2.54-1.6,4.57-1.6c1.93,0,3.45,0.53,4.57,1.6c1.12,1.07,1.68,2.62,1.68,4.65v76.81
					c0,5.49,1.09,9.58,3.28,12.27c2.18,2.69,5.41,4.04,9.68,4.04c0.91,0,1.73-0.05,2.44-0.15c0.71-0.1,1.42-0.15,2.13-0.15
					c1.12-0.1,1.9,0.15,2.36,0.76s0.69,1.83,0.69,3.66s-0.41,3.2-1.22,4.12c-0.81,0.91-2.13,1.52-3.96,1.83
					c-0.81,0.1-1.68,0.2-2.59,0.3C251.08,391.52,250.22,391.57,249.41,391.57z"/>
			</g>
		</g>
	</g>
	<g>
		<g>
			<path class="st8" d="M284.12,303.27c-4.17,0-7.37-1.01-9.6-3.05c-2.24-2.03-3.35-4.93-3.35-8.69c0-3.66,1.12-6.48,3.35-8.46
				c2.23-1.98,5.43-2.97,9.6-2.97c4.27,0,7.54,0.99,9.83,2.97c2.29,1.98,3.43,4.8,3.43,8.46c0,3.76-1.14,6.66-3.43,8.69
				C291.67,302.25,288.39,303.27,284.12,303.27z M284.12,392.88c-3.56,0-6.35-1.09-8.38-3.28c-2.03-2.18-3.05-5.26-3.05-9.22v-52.27
				c0-4.06,1.01-7.14,3.05-9.22c2.03-2.08,4.83-3.12,8.38-3.12c3.76,0,6.63,1.04,8.61,3.12c1.98,2.08,2.97,5.16,2.97,9.22v52.27
				c0,3.96-0.97,7.04-2.89,9.22C290.88,391.78,287.98,392.88,284.12,392.88z"/>
			<path class="st8" d="M324.96,392.88c-3.56,0-6.35-0.99-8.38-2.97c-2.03-1.98-3.05-4.85-3.05-8.61v-54.1
				c0-3.76,0.99-6.63,2.97-8.61c1.98-1.98,4.8-2.97,8.46-2.97c3.55,0,6.3,0.99,8.23,2.97c1.93,1.98,2.89,4.85,2.89,8.61v8.69
				l-1.68-4.88c2.23-5.08,5.69-8.97,10.36-11.66c4.67-2.69,9.91-4.04,15.7-4.04c6.1,0,11.05,1.14,14.86,3.43
				c3.81,2.29,6.68,5.77,8.61,10.44c1.93,4.67,2.89,10.57,2.89,17.68v34.44c0,3.76-0.97,6.63-2.89,8.61
				c-1.93,1.98-4.78,2.97-8.54,2.97c-3.56,0-6.38-0.99-8.46-2.97c-2.08-1.98-3.12-4.85-3.12-8.61v-33.53c0-5.18-0.94-8.92-2.82-11.2
				c-1.88-2.29-4.7-3.43-8.46-3.43c-4.88,0-8.76,1.52-11.66,4.57c-2.9,3.05-4.34,7.11-4.34,12.19v31.39
				C336.55,389.02,332.69,392.88,324.96,392.88z"/>
		</g>
	</g>
	<g>
		<g>
			<g>
				<path class="st9" d="M139.53,391.57c-5.08,0-9.63-0.99-13.64-2.97c-4.02-1.98-7.19-4.7-9.53-8.15
					c-2.34-3.45-3.51-7.31-3.51-11.58c0-5.49,1.4-9.8,4.19-12.95c2.79-3.15,7.42-5.38,13.87-6.71c6.45-1.32,15.26-1.98,26.44-1.98
					h6.86v8.08h-6.71c-8.23,0-14.71,0.38-19.43,1.14c-4.72,0.76-8.03,2.06-9.91,3.89c-1.88,1.83-2.82,4.42-2.82,7.77
					c0,4.17,1.45,7.57,4.34,10.21c2.9,2.64,6.83,3.96,11.81,3.96c4.06,0,7.64-0.96,10.74-2.9c3.1-1.93,5.54-4.57,7.31-7.92
					c1.78-3.35,2.67-7.21,2.67-11.58V342.5c0-6.3-1.27-10.84-3.81-13.64c-2.54-2.79-6.71-4.19-12.5-4.19
					c-3.56,0-7.11,0.46-10.67,1.37c-3.56,0.92-7.31,2.39-11.28,4.42c-1.42,0.71-2.64,0.94-3.66,0.69c-1.02-0.25-1.83-0.79-2.44-1.6
					c-0.61-0.81-0.97-1.75-1.07-2.82c-0.1-1.07,0.13-2.11,0.69-3.12c0.56-1.01,1.45-1.83,2.67-2.44c4.47-2.23,8.89-3.86,13.26-4.88
					c4.37-1.01,8.54-1.52,12.5-1.52c6.4,0,11.68,1.04,15.85,3.12c4.17,2.08,7.26,5.23,9.3,9.45c2.03,4.22,3.05,9.63,3.05,16.23v41.3
					c0,2.03-0.48,3.61-1.45,4.72c-0.97,1.12-2.36,1.68-4.19,1.68c-1.93,0-3.41-0.56-4.42-1.68c-1.02-1.12-1.53-2.69-1.53-4.72
					v-11.89h1.37c-0.81,3.86-2.36,7.16-4.65,9.91c-2.29,2.74-5.11,4.88-8.46,6.4C147.45,390.81,143.69,391.57,139.53,391.57z"/>
				<path class="st9" d="M211.92,391.57c-7.32,0-12.9-2.23-16.77-6.71c-3.86-4.47-5.79-10.87-5.79-19.2v-77.72
					c0-2.03,0.51-3.58,1.53-4.65c1.01-1.07,2.54-1.6,4.57-1.6c1.93,0,3.45,0.53,4.57,1.6c1.12,1.07,1.68,2.62,1.68,4.65v76.81
					c0,5.49,1.09,9.58,3.28,12.27c2.18,2.69,5.41,4.04,9.68,4.04c0.91,0,1.73-0.05,2.44-0.15c0.71-0.1,1.42-0.15,2.13-0.15
					c1.12-0.1,1.9,0.15,2.36,0.76s0.69,1.83,0.69,3.66s-0.41,3.2-1.22,4.12c-0.81,0.91-2.13,1.52-3.96,1.83
					c-0.81,0.1-1.68,0.2-2.59,0.3C213.59,391.52,212.73,391.57,211.92,391.57z"/>
				<path class="st9" d="M249.41,391.57c-7.32,0-12.9-2.23-16.77-6.71c-3.86-4.47-5.79-10.87-5.79-19.2v-77.72
					c0-2.03,0.51-3.58,1.53-4.65c1.01-1.07,2.54-1.6,4.57-1.6c1.93,0,3.45,0.53,4.57,1.6c1.12,1.07,1.68,2.62,1.68,4.65v76.81
					c0,5.49,1.09,9.58,3.28,12.27c2.18,2.69,5.41,4.04,9.68,4.04c0.91,0,1.73-0.05,2.44-0.15c0.71-0.1,1.42-0.15,2.13-0.15
					c1.12-0.1,1.9,0.15,2.36,0.76s0.69,1.83,0.69,3.66s-0.41,3.2-1.22,4.12c-0.81,0.91-2.13,1.52-3.96,1.83
					c-0.81,0.1-1.68,0.2-2.59,0.3C251.08,391.52,250.22,391.57,249.41,391.57z"/>
			</g>
		</g>
	</g>
	<g>
		<g>
			<path class="st10" d="M284.12,303.27c-4.17,0-7.37-1.01-9.6-3.05c-2.24-2.03-3.35-4.93-3.35-8.69c0-3.66,1.12-6.48,3.35-8.46
				c2.23-1.98,5.43-2.97,9.6-2.97c4.27,0,7.54,0.99,9.83,2.97c2.29,1.98,3.43,4.8,3.43,8.46c0,3.76-1.14,6.66-3.43,8.69
				C291.67,302.25,288.39,303.27,284.12,303.27z M284.12,392.88c-3.56,0-6.35-1.09-8.38-3.28c-2.03-2.18-3.05-5.26-3.05-9.22v-52.27
				c0-4.06,1.01-7.14,3.05-9.22c2.03-2.08,4.83-3.12,8.38-3.12c3.76,0,6.63,1.04,8.61,3.12c1.98,2.08,2.97,5.16,2.97,9.22v52.27
				c0,3.96-0.97,7.04-2.89,9.22C290.88,391.78,287.98,392.88,284.12,392.88z"/>
			<path class="st10" d="M324.96,392.88c-3.56,0-6.35-0.99-8.38-2.97c-2.03-1.98-3.05-4.85-3.05-8.61v-54.1
				c0-3.76,0.99-6.63,2.97-8.61c1.98-1.98,4.8-2.97,8.46-2.97c3.55,0,6.3,0.99,8.23,2.97c1.93,1.98,2.89,4.85,2.89,8.61v8.69
				l-1.68-4.88c2.23-5.08,5.69-8.97,10.36-11.66c4.67-2.69,9.91-4.04,15.7-4.04c6.1,0,11.05,1.14,14.86,3.43
				c3.81,2.29,6.68,5.77,8.61,10.44c1.93,4.67,2.89,10.57,2.89,17.68v34.44c0,3.76-0.97,6.63-2.89,8.61
				c-1.93,1.98-4.78,2.97-8.54,2.97c-3.56,0-6.38-0.99-8.46-2.97c-2.08-1.98-3.12-4.85-3.12-8.61v-33.53c0-5.18-0.94-8.92-2.82-11.2
				c-1.88-2.29-4.7-3.43-8.46-3.43c-4.88,0-8.76,1.52-11.66,4.57c-2.9,3.05-4.34,7.11-4.34,12.19v31.39
				C336.55,389.02,332.69,392.88,324.96,392.88z"/>
		</g>
	</g>
</g>
<g>
	<g>
		<path class="st9" d="M48.24,429.38c-0.48,0-0.85-0.14-1.12-0.41c-0.26-0.28-0.4-0.65-0.4-1.13v-22.46c0-0.5,0.13-0.89,0.38-1.15
			c0.25-0.26,0.62-0.4,1.1-0.4c0.48,0,0.85,0.13,1.1,0.4c0.25,0.26,0.38,0.65,0.38,1.15v21.42h11.81c0.43,0,0.77,0.11,1.01,0.34
			c0.24,0.23,0.36,0.55,0.36,0.95s-0.12,0.73-0.36,0.95c-0.24,0.23-0.58,0.34-1.01,0.34H48.24z"/>
		<path class="st9" d="M67.32,407.67c-0.6,0-1.07-0.16-1.4-0.49c-0.34-0.32-0.5-0.76-0.5-1.31c0-0.58,0.17-1.01,0.5-1.31
			c0.33-0.3,0.8-0.45,1.4-0.45c0.62,0,1.1,0.15,1.42,0.45c0.32,0.3,0.49,0.74,0.49,1.31c0,0.55-0.16,0.99-0.49,1.31
			C68.42,407.51,67.94,407.67,67.32,407.67z M67.32,429.56c-0.48,0-0.84-0.14-1.08-0.41c-0.24-0.28-0.36-0.67-0.36-1.17v-14.72
			c0-0.5,0.12-0.89,0.36-1.15c0.24-0.26,0.6-0.4,1.08-0.4c0.46,0,0.82,0.13,1.08,0.4c0.26,0.26,0.4,0.65,0.4,1.15v14.72
			c0,0.5-0.13,0.89-0.38,1.17C68.17,429.42,67.8,429.56,67.32,429.56z"/>
		<path class="st9" d="M80.75,429.63c-0.41,0-0.77-0.11-1.08-0.34c-0.31-0.23-0.58-0.58-0.79-1.06l-6.23-14.54
			c-0.17-0.36-0.23-0.7-0.18-1.01c0.05-0.31,0.19-0.56,0.43-0.76c0.24-0.19,0.58-0.29,1.01-0.29c0.38,0,0.68,0.08,0.9,0.25
			c0.22,0.17,0.41,0.47,0.58,0.9l5.9,14.44h-0.97l6.01-14.44c0.17-0.43,0.36-0.73,0.58-0.9s0.53-0.25,0.94-0.25
			c0.38,0,0.68,0.1,0.88,0.29c0.2,0.19,0.32,0.44,0.36,0.74s-0.02,0.63-0.16,0.99l-6.3,14.58c-0.17,0.48-0.41,0.83-0.74,1.06
			S81.18,429.63,80.75,429.63z"/>
		<path class="st9" d="M100.66,429.7c-1.85,0-3.44-0.37-4.77-1.1c-1.33-0.73-2.36-1.77-3.1-3.11c-0.73-1.34-1.1-2.95-1.1-4.82
			c0-1.82,0.36-3.41,1.08-4.77c0.72-1.36,1.71-2.42,2.97-3.19c1.26-0.77,2.72-1.15,4.37-1.15c1.18,0,2.23,0.2,3.17,0.59
			c0.94,0.4,1.73,0.97,2.39,1.71s1.16,1.64,1.51,2.7c0.35,1.06,0.52,2.25,0.52,3.56c0,0.38-0.11,0.67-0.32,0.85
			c-0.22,0.18-0.53,0.27-0.94,0.27H93.92v-1.91h11.84l-0.58,0.47c0-1.3-0.19-2.39-0.58-3.29c-0.38-0.9-0.94-1.59-1.67-2.07
			c-0.73-0.48-1.65-0.72-2.75-0.72c-1.22,0-2.26,0.28-3.11,0.85c-0.85,0.56-1.49,1.34-1.93,2.34c-0.43,1-0.65,2.15-0.65,3.47v0.22
			c0,2.21,0.53,3.89,1.6,5.04c1.07,1.15,2.58,1.73,4.55,1.73c0.82,0,1.63-0.11,2.43-0.32s1.59-0.58,2.36-1.08
			c0.34-0.22,0.64-0.32,0.92-0.31c0.28,0.01,0.5,0.1,0.67,0.25c0.17,0.16,0.28,0.35,0.34,0.58c0.06,0.23,0.04,0.47-0.07,0.74
			c-0.11,0.26-0.32,0.49-0.63,0.68c-0.79,0.58-1.73,1.02-2.81,1.33C102.78,429.54,101.71,429.7,100.66,429.7z"/>
		<path class="st10" d="M125.1,436.11c-0.36,0-0.65-0.1-0.86-0.29c-0.22-0.19-0.34-0.45-0.38-0.77s0.02-0.65,0.16-0.99l2.48-5.58
			v1.26l-6.91-16.06c-0.14-0.36-0.19-0.7-0.14-1.01c0.05-0.31,0.19-0.56,0.43-0.76c0.24-0.19,0.58-0.29,1.01-0.29
			c0.38,0,0.68,0.08,0.9,0.25c0.22,0.17,0.41,0.47,0.58,0.9l5.9,14.47h-0.97l5.98-14.47c0.19-0.43,0.4-0.73,0.61-0.9
			s0.53-0.25,0.94-0.25c0.38,0,0.68,0.1,0.88,0.29c0.2,0.19,0.32,0.44,0.36,0.74s-0.02,0.63-0.16,0.99l-9.22,21.31
			c-0.19,0.43-0.4,0.73-0.63,0.9C125.83,436.02,125.51,436.11,125.1,436.11z"/>
		<path class="st10" d="M146.99,429.7c-1.7,0-3.18-0.37-4.43-1.12c-1.25-0.74-2.21-1.79-2.9-3.15c-0.68-1.36-1.03-2.96-1.03-4.81
			c0-1.39,0.19-2.65,0.58-3.76c0.38-1.12,0.95-2.07,1.69-2.86s1.63-1.4,2.65-1.82c1.02-0.42,2.17-0.63,3.44-0.63
			c1.7,0,3.18,0.37,4.43,1.12c1.25,0.74,2.21,1.79,2.9,3.15s1.03,2.96,1.03,4.81c0,1.39-0.19,2.64-0.58,3.74
			c-0.38,1.1-0.95,2.06-1.69,2.86c-0.74,0.8-1.63,1.42-2.65,1.84C149.41,429.49,148.26,429.7,146.99,429.7z M146.99,427.36
			c1.08,0,2.03-0.26,2.84-0.79c0.82-0.53,1.45-1.3,1.89-2.3c0.44-1.01,0.67-2.22,0.67-3.64c0-2.18-0.49-3.85-1.46-5
			c-0.97-1.15-2.29-1.73-3.94-1.73c-1.1,0-2.06,0.26-2.86,0.77c-0.8,0.52-1.43,1.27-1.87,2.27c-0.44,1-0.67,2.23-0.67,3.69
			c0,2.16,0.49,3.82,1.48,4.99C144.05,426.78,145.36,427.36,146.99,427.36z"/>
		<path class="st10" d="M165.92,429.7c-1.42,0-2.59-0.26-3.51-0.77s-1.62-1.29-2.09-2.32c-0.47-1.03-0.7-2.32-0.7-3.85v-9.65
			c0-0.5,0.13-0.88,0.38-1.12s0.61-0.36,1.06-0.36c0.48,0,0.85,0.12,1.1,0.36s0.38,0.61,0.38,1.12v9.61c0,1.54,0.32,2.68,0.95,3.44
			c0.64,0.76,1.64,1.13,3.01,1.13c1.49,0,2.7-0.5,3.64-1.51c0.94-1.01,1.4-2.33,1.4-3.96v-8.71c0-0.5,0.13-0.88,0.38-1.12
			s0.62-0.36,1.1-0.36c0.46,0,0.81,0.12,1.06,0.36s0.38,0.61,0.38,1.12v15.01c0,1.01-0.47,1.51-1.4,1.51c-0.46,0-0.81-0.13-1.06-0.4
			c-0.25-0.26-0.38-0.64-0.38-1.12v-3.28l0.47,0.5c-0.48,1.42-1.27,2.5-2.36,3.24C168.63,429.33,167.36,429.7,165.92,429.7z"/>
		<path class="st10" d="M181.4,429.63c-0.48,0-0.85-0.13-1.1-0.4c-0.25-0.26-0.38-0.64-0.38-1.12V413.1c0-0.48,0.12-0.85,0.36-1.1
			s0.59-0.38,1.04-0.38s0.81,0.13,1.06,0.38s0.38,0.62,0.38,1.1v2.92h-0.36c0.38-1.42,1.12-2.51,2.2-3.28
			c1.08-0.77,2.41-1.18,4-1.22c0.36-0.02,0.65,0.05,0.86,0.23c0.22,0.18,0.33,0.49,0.36,0.92c0.02,0.41-0.07,0.73-0.29,0.97
			c-0.22,0.24-0.55,0.38-1.01,0.43l-0.58,0.07c-1.63,0.14-2.89,0.67-3.76,1.57c-0.88,0.9-1.31,2.13-1.31,3.69v8.71
			c0,0.48-0.13,0.85-0.38,1.12C182.25,429.5,181.88,429.63,181.4,429.63z"/>
		<path class="st9" d="M203.54,407.67c-0.6,0-1.07-0.16-1.4-0.49c-0.34-0.32-0.5-0.76-0.5-1.31c0-0.58,0.17-1.01,0.5-1.31
			c0.33-0.3,0.8-0.45,1.4-0.45c0.62,0,1.1,0.15,1.42,0.45c0.32,0.3,0.49,0.74,0.49,1.31c0,0.55-0.16,0.99-0.49,1.31
			C204.64,407.51,204.17,407.67,203.54,407.67z M203.54,429.56c-0.48,0-0.84-0.14-1.08-0.41c-0.24-0.28-0.36-0.67-0.36-1.17v-14.72
			c0-0.5,0.12-0.89,0.36-1.15c0.24-0.26,0.6-0.4,1.08-0.4c0.46,0,0.82,0.13,1.08,0.4c0.26,0.26,0.4,0.65,0.4,1.15v14.72
			c0,0.5-0.13,0.89-0.38,1.17C204.39,429.42,204.02,429.56,203.54,429.56z"/>
		<path class="st9" d="M211.89,429.63c-0.48,0-0.84-0.13-1.08-0.4c-0.24-0.26-0.36-0.64-0.36-1.12V413.1c0-0.48,0.12-0.85,0.36-1.1
			s0.59-0.38,1.04-0.38s0.81,0.13,1.06,0.38s0.38,0.62,0.38,1.1v3.1l-0.4-0.43c0.5-1.39,1.33-2.44,2.47-3.15
			c1.14-0.71,2.45-1.06,3.94-1.06c1.39,0,2.55,0.25,3.47,0.76c0.92,0.5,1.61,1.27,2.07,2.29c0.46,1.02,0.68,2.31,0.68,3.87v9.65
			c0,0.48-0.13,0.85-0.38,1.12c-0.25,0.26-0.61,0.4-1.06,0.4c-0.48,0-0.85-0.13-1.1-0.4c-0.25-0.26-0.38-0.64-0.38-1.12v-9.47
			c0-1.63-0.32-2.83-0.95-3.58c-0.64-0.76-1.65-1.13-3.04-1.13c-1.61,0-2.89,0.5-3.83,1.49c-0.95,1-1.42,2.32-1.42,3.98v8.71
			C213.37,429.12,212.88,429.63,211.89,429.63z"/>
		<path class="st9" d="M238.32,429.7c-1.75,0-3.26-0.38-4.54-1.15c-1.27-0.77-2.25-1.84-2.93-3.22c-0.68-1.38-1.03-2.98-1.03-4.81
			c0-1.39,0.19-2.64,0.58-3.74c0.38-1.1,0.95-2.05,1.69-2.83s1.64-1.37,2.68-1.78c1.04-0.41,2.23-0.61,3.55-0.61
			c0.86,0,1.76,0.13,2.7,0.4c0.94,0.26,1.79,0.72,2.56,1.37c0.24,0.17,0.4,0.37,0.47,0.61c0.07,0.24,0.07,0.47,0,0.7
			c-0.07,0.23-0.19,0.42-0.36,0.58s-0.38,0.25-0.63,0.27c-0.25,0.02-0.51-0.06-0.77-0.25c-0.62-0.48-1.26-0.82-1.91-1.01
			c-0.65-0.19-1.27-0.29-1.87-0.29c-0.94,0-1.75,0.15-2.45,0.45c-0.7,0.3-1.28,0.73-1.76,1.28c-0.48,0.55-0.85,1.24-1.1,2.05
			c-0.25,0.82-0.38,1.76-0.38,2.84c0,2.09,0.49,3.74,1.48,4.95c0.98,1.21,2.39,1.82,4.21,1.82c0.6,0,1.22-0.1,1.85-0.29
			s1.28-0.53,1.93-1.01c0.26-0.19,0.52-0.28,0.76-0.25c0.24,0.02,0.44,0.11,0.61,0.27c0.17,0.16,0.28,0.35,0.34,0.59
			c0.06,0.24,0.05,0.47-0.02,0.7c-0.07,0.23-0.23,0.43-0.47,0.59c-0.77,0.62-1.61,1.08-2.52,1.35
			C240.07,429.56,239.18,429.7,238.32,429.7z"/>
		<path class="st9" d="M252.9,429.7c-1.73,0-3.05-0.53-3.96-1.58s-1.37-2.57-1.37-4.54v-18.36c0-0.48,0.12-0.85,0.36-1.1
			s0.6-0.38,1.08-0.38c0.46,0,0.82,0.13,1.08,0.38c0.26,0.25,0.4,0.62,0.4,1.1v18.14c0,1.3,0.26,2.26,0.77,2.9
			c0.52,0.64,1.28,0.95,2.29,0.95c0.22,0,0.41-0.01,0.58-0.04c0.17-0.02,0.34-0.04,0.5-0.04c0.26-0.02,0.45,0.04,0.56,0.18
			c0.11,0.14,0.16,0.43,0.16,0.86c0,0.43-0.1,0.76-0.29,0.97s-0.5,0.36-0.94,0.43c-0.19,0.02-0.4,0.05-0.61,0.07
			C253.29,429.69,253.09,429.7,252.9,429.7z"/>
		<path class="st9" d="M264.42,429.7c-1.42,0-2.59-0.26-3.51-0.77s-1.62-1.29-2.09-2.32c-0.47-1.03-0.7-2.32-0.7-3.85v-9.65
			c0-0.5,0.13-0.88,0.38-1.12s0.61-0.36,1.06-0.36c0.48,0,0.85,0.12,1.1,0.36s0.38,0.61,0.38,1.12v9.61c0,1.54,0.32,2.68,0.95,3.44
			c0.64,0.76,1.64,1.13,3.01,1.13c1.49,0,2.7-0.5,3.64-1.51c0.94-1.01,1.4-2.33,1.4-3.96v-8.71c0-0.5,0.13-0.88,0.38-1.12
			s0.62-0.36,1.1-0.36c0.46,0,0.81,0.12,1.06,0.36s0.38,0.61,0.38,1.12v15.01c0,1.01-0.47,1.51-1.4,1.51c-0.46,0-0.81-0.13-1.06-0.4
			c-0.25-0.26-0.38-0.64-0.38-1.12v-3.28l0.47,0.5c-0.48,1.42-1.27,2.5-2.36,3.24C267.12,429.33,265.86,429.7,264.42,429.7z"/>
		<path class="st9" d="M284.33,429.7c-1.08,0-2.17-0.13-3.26-0.4s-2.11-0.72-3.04-1.37c-0.24-0.17-0.41-0.37-0.5-0.59
			c-0.1-0.23-0.13-0.46-0.09-0.68s0.13-0.43,0.29-0.59c0.16-0.17,0.35-0.27,0.58-0.31c0.23-0.04,0.49,0.02,0.77,0.16
			c0.94,0.58,1.84,0.98,2.72,1.21c0.88,0.23,1.75,0.34,2.61,0.34c1.37,0,2.4-0.25,3.1-0.76s1.04-1.19,1.04-2.05
			c0-0.67-0.23-1.21-0.68-1.6c-0.46-0.4-1.18-0.7-2.16-0.92l-3.28-0.72c-1.51-0.31-2.63-0.85-3.37-1.62
			c-0.73-0.77-1.1-1.76-1.1-2.99c0-1.08,0.28-2.01,0.85-2.79c0.56-0.78,1.36-1.39,2.39-1.82s2.23-0.65,3.6-0.65
			c1.06,0,2.06,0.14,3.01,0.41c0.95,0.28,1.81,0.71,2.57,1.31c0.24,0.17,0.4,0.37,0.49,0.59c0.08,0.23,0.1,0.46,0.04,0.68
			c-0.06,0.23-0.17,0.42-0.34,0.58c-0.17,0.16-0.37,0.25-0.61,0.27c-0.24,0.02-0.49-0.05-0.76-0.22c-0.72-0.48-1.45-0.83-2.2-1.06
			c-0.74-0.23-1.48-0.34-2.2-0.34c-1.34,0-2.36,0.26-3.06,0.79c-0.7,0.53-1.04,1.22-1.04,2.09c0,0.67,0.22,1.22,0.65,1.66
			c0.43,0.43,1.1,0.74,2.02,0.94l3.28,0.68c1.56,0.34,2.73,0.87,3.51,1.6c0.78,0.73,1.17,1.72,1.17,2.97c0,1.58-0.64,2.84-1.91,3.78
			C288.13,429.23,286.44,429.7,284.33,429.7z"/>
		<path class="st9" d="M297.18,407.67c-0.6,0-1.07-0.16-1.4-0.49c-0.34-0.32-0.5-0.76-0.5-1.31c0-0.58,0.17-1.01,0.5-1.31
			c0.33-0.3,0.8-0.45,1.4-0.45c0.62,0,1.1,0.15,1.42,0.45c0.32,0.3,0.49,0.74,0.49,1.31c0,0.55-0.16,0.99-0.49,1.31
			C298.28,407.51,297.8,407.67,297.18,407.67z M297.18,429.56c-0.48,0-0.84-0.14-1.08-0.41c-0.24-0.28-0.36-0.67-0.36-1.17v-14.72
			c0-0.5,0.12-0.89,0.36-1.15c0.24-0.26,0.6-0.4,1.08-0.4c0.46,0,0.82,0.13,1.08,0.4c0.26,0.26,0.4,0.65,0.4,1.15v14.72
			c0,0.5-0.13,0.89-0.38,1.17C298.02,429.42,297.66,429.56,297.18,429.56z"/>
		<path class="st9" d="M311.36,429.7c-1.7,0-3.18-0.37-4.43-1.12c-1.25-0.74-2.21-1.79-2.9-3.15c-0.68-1.36-1.03-2.96-1.03-4.81
			c0-1.39,0.19-2.65,0.58-3.76c0.38-1.12,0.95-2.07,1.69-2.86s1.63-1.4,2.65-1.82c1.02-0.42,2.17-0.63,3.44-0.63
			c1.7,0,3.18,0.37,4.43,1.12c1.25,0.74,2.21,1.79,2.9,3.15s1.03,2.96,1.03,4.81c0,1.39-0.19,2.64-0.58,3.74
			c-0.38,1.1-0.95,2.06-1.69,2.86c-0.74,0.8-1.63,1.42-2.65,1.84C313.78,429.49,312.63,429.7,311.36,429.7z M311.36,427.36
			c1.08,0,2.03-0.26,2.84-0.79c0.82-0.53,1.45-1.3,1.89-2.3c0.44-1.01,0.67-2.22,0.67-3.64c0-2.18-0.49-3.85-1.46-5
			c-0.97-1.15-2.29-1.73-3.94-1.73c-1.1,0-2.06,0.26-2.86,0.77c-0.8,0.52-1.43,1.27-1.87,2.27c-0.44,1-0.67,2.23-0.67,3.69
			c0,2.16,0.49,3.82,1.48,4.99C308.42,426.78,309.73,427.36,311.36,427.36z"/>
		<path class="st9" d="M325.54,429.63c-0.48,0-0.84-0.13-1.08-0.4c-0.24-0.26-0.36-0.64-0.36-1.12V413.1c0-0.48,0.12-0.85,0.36-1.1
			s0.59-0.38,1.04-0.38s0.81,0.13,1.06,0.38s0.38,0.62,0.38,1.1v3.1l-0.4-0.43c0.5-1.39,1.33-2.44,2.47-3.15
			c1.14-0.71,2.45-1.06,3.94-1.06c1.39,0,2.55,0.25,3.47,0.76c0.92,0.5,1.61,1.27,2.07,2.29c0.46,1.02,0.68,2.31,0.68,3.87v9.65
			c0,0.48-0.13,0.85-0.38,1.12c-0.25,0.26-0.61,0.4-1.06,0.4c-0.48,0-0.85-0.13-1.1-0.4c-0.25-0.26-0.38-0.64-0.38-1.12v-9.47
			c0-1.63-0.32-2.83-0.95-3.58c-0.64-0.76-1.65-1.13-3.04-1.13c-1.61,0-2.89,0.5-3.83,1.49c-0.95,1-1.42,2.32-1.42,3.98v8.71
			C327.02,429.12,326.53,429.63,325.54,429.63z"/>
		<path class="st10" d="M361.72,429.7c-1.85,0-3.44-0.37-4.77-1.1c-1.33-0.73-2.36-1.77-3.1-3.11c-0.73-1.34-1.1-2.95-1.1-4.82
			c0-1.82,0.36-3.41,1.08-4.77c0.72-1.36,1.71-2.42,2.97-3.19c1.26-0.77,2.72-1.15,4.37-1.15c1.18,0,2.23,0.2,3.17,0.59
			c0.94,0.4,1.73,0.97,2.39,1.71s1.16,1.64,1.51,2.7c0.35,1.06,0.52,2.25,0.52,3.56c0,0.38-0.11,0.67-0.32,0.85
			c-0.22,0.18-0.53,0.27-0.94,0.27h-12.53v-1.91h11.84l-0.58,0.47c0-1.3-0.19-2.39-0.58-3.29c-0.38-0.9-0.94-1.59-1.67-2.07
			c-0.73-0.48-1.65-0.72-2.75-0.72c-1.22,0-2.26,0.28-3.11,0.85c-0.85,0.56-1.49,1.34-1.93,2.34c-0.43,1-0.65,2.15-0.65,3.47v0.22
			c0,2.21,0.53,3.89,1.6,5.04c1.07,1.15,2.58,1.73,4.55,1.73c0.82,0,1.63-0.11,2.43-0.32s1.59-0.58,2.36-1.08
			c0.34-0.22,0.64-0.32,0.92-0.31c0.28,0.01,0.5,0.1,0.67,0.25c0.17,0.16,0.28,0.35,0.34,0.58c0.06,0.23,0.04,0.47-0.07,0.74
			c-0.11,0.26-0.32,0.49-0.63,0.68c-0.79,0.58-1.73,1.02-2.81,1.33C363.85,429.54,362.78,429.7,361.72,429.7z"/>
		<path class="st10" d="M379.51,429.63c-0.41,0-0.77-0.11-1.08-0.34c-0.31-0.23-0.58-0.58-0.79-1.06l-6.23-14.54
			c-0.17-0.36-0.23-0.7-0.18-1.01c0.05-0.31,0.19-0.56,0.43-0.76c0.24-0.19,0.58-0.29,1.01-0.29c0.38,0,0.68,0.08,0.9,0.25
			c0.22,0.17,0.41,0.47,0.58,0.9l5.9,14.44h-0.97l6.01-14.44c0.17-0.43,0.36-0.73,0.58-0.9s0.53-0.25,0.94-0.25
			c0.38,0,0.68,0.1,0.88,0.29c0.2,0.19,0.32,0.44,0.36,0.74s-0.02,0.63-0.16,0.99l-6.3,14.58c-0.17,0.48-0.41,0.83-0.74,1.06
			S379.94,429.63,379.51,429.63z"/>
		<path class="st10" d="M399.42,429.7c-1.85,0-3.44-0.37-4.77-1.1c-1.33-0.73-2.36-1.77-3.1-3.11c-0.73-1.34-1.1-2.95-1.1-4.82
			c0-1.82,0.36-3.41,1.08-4.77c0.72-1.36,1.71-2.42,2.97-3.19c1.26-0.77,2.72-1.15,4.37-1.15c1.18,0,2.23,0.2,3.17,0.59
			c0.94,0.4,1.73,0.97,2.39,1.71s1.16,1.64,1.51,2.7c0.35,1.06,0.52,2.25,0.52,3.56c0,0.38-0.11,0.67-0.32,0.85
			c-0.22,0.18-0.53,0.27-0.94,0.27h-12.53v-1.91h11.84l-0.58,0.47c0-1.3-0.19-2.39-0.58-3.29c-0.38-0.9-0.94-1.59-1.67-2.07
			c-0.73-0.48-1.65-0.72-2.75-0.72c-1.22,0-2.26,0.28-3.11,0.85c-0.85,0.56-1.49,1.34-1.93,2.34c-0.43,1-0.65,2.15-0.65,3.47v0.22
			c0,2.21,0.53,3.89,1.6,5.04c1.07,1.15,2.58,1.73,4.55,1.73c0.82,0,1.63-0.11,2.43-0.32s1.59-0.58,2.36-1.08
			c0.34-0.22,0.64-0.32,0.92-0.31c0.28,0.01,0.5,0.1,0.67,0.25c0.17,0.16,0.28,0.35,0.34,0.58c0.06,0.23,0.04,0.47-0.07,0.74
			c-0.11,0.26-0.32,0.49-0.63,0.68c-0.79,0.58-1.73,1.02-2.81,1.33C401.54,429.54,400.47,429.7,399.42,429.7z"/>
		<path class="st10" d="M412.12,429.63c-0.48,0-0.84-0.13-1.08-0.4c-0.24-0.26-0.36-0.64-0.36-1.12V413.1c0-0.48,0.12-0.85,0.36-1.1
			s0.59-0.38,1.04-0.38s0.81,0.13,1.06,0.38s0.38,0.62,0.38,1.1v3.1l-0.4-0.43c0.5-1.39,1.33-2.44,2.47-3.15
			c1.14-0.71,2.45-1.06,3.94-1.06c1.39,0,2.55,0.25,3.47,0.76c0.92,0.5,1.61,1.27,2.07,2.29c0.46,1.02,0.68,2.31,0.68,3.87v9.65
			c0,0.48-0.13,0.85-0.38,1.12c-0.25,0.26-0.61,0.4-1.06,0.4c-0.48,0-0.85-0.13-1.1-0.4c-0.25-0.26-0.38-0.64-0.38-1.12v-9.47
			c0-1.63-0.32-2.83-0.95-3.58c-0.64-0.76-1.65-1.13-3.04-1.13c-1.61,0-2.89,0.5-3.83,1.49c-0.95,1-1.42,2.32-1.42,3.98v8.71
			C413.6,429.12,413.11,429.63,412.12,429.63z"/>
		<path class="st10" d="M438.15,429.7c-1.37,0-2.51-0.25-3.44-0.74c-0.92-0.49-1.61-1.21-2.07-2.16c-0.46-0.95-0.68-2.11-0.68-3.47
			v-9.18h-2.41c-0.41,0-0.72-0.1-0.94-0.31c-0.22-0.2-0.32-0.49-0.32-0.85s0.11-0.64,0.32-0.83c0.22-0.19,0.53-0.29,0.94-0.29h2.41
			v-4.14c0-0.48,0.13-0.85,0.4-1.1c0.26-0.25,0.62-0.38,1.08-0.38s0.81,0.13,1.06,0.38s0.38,0.62,0.38,1.1v4.14h4.54
			c0.41,0,0.72,0.1,0.94,0.29c0.22,0.19,0.32,0.47,0.32,0.83s-0.11,0.64-0.32,0.85c-0.22,0.2-0.53,0.31-0.94,0.31h-4.54v8.89
			c0,1.37,0.29,2.41,0.86,3.11s1.51,1.06,2.81,1.06c0.46,0,0.85-0.05,1.17-0.14s0.59-0.14,0.81-0.14c0.22-0.02,0.4,0.05,0.54,0.22
			c0.14,0.17,0.22,0.46,0.22,0.86c0,0.29-0.05,0.55-0.16,0.79c-0.11,0.24-0.29,0.41-0.56,0.5c-0.29,0.1-0.67,0.19-1.13,0.27
			C438.96,429.66,438.54,429.7,438.15,429.7z"/>
	</g>
</g>
<g class="st11">
	<polygon class="st12" points="351.48,286.69 344.01,281.79 335.73,285.17 338.08,276.54 332.31,269.72 341.24,269.29 
		345.94,261.69 349.11,270.05 357.8,272.18 350.82,277.77 	"/>
	<polygon class="st12" points="321.58,260.16 316.79,257.66 312.01,260.18 312.91,254.85 309.03,251.09 314.38,250.3 316.76,245.44 
		319.16,250.29 324.52,251.05 320.65,254.84 	"/>
	<polygon class="st12" points="165.96,233.84 159.87,229.49 152.83,232.04 155.08,224.9 150.48,219 157.97,218.94 162.16,212.74 
		164.53,219.84 171.72,221.91 165.7,226.36 	"/>
	<polygon class="st12" points="214.08,265.84 209.78,262.64 204.7,264.37 206.41,259.29 203.19,255 208.56,255.06 211.64,250.67 
		213.25,255.79 218.37,257.37 214,260.48 	"/>
</g>
</svg>
